<svg width="113" height="19" viewBox="0 0 113 19" fill="none" xmlns="http://www.w3.org/2000/svg">
<path d="M10.8992 0L13.3462 6.56434H21.265L14.8586 10.6213L17.3056 17.1857L10.8992 13.1287L4.49282 17.1857L6.93984 10.6213L0.533445 6.56434H8.45219L10.8992 0Z" fill="#E7F06E"/>
<path d="M36.3309 0L38.7779 6.56434H46.6966L40.2902 10.6213L42.7372 17.1857L36.3309 13.1287L29.9245 17.1857L32.3715 10.6213L25.9651 6.56434H33.8838L36.3309 0Z" fill="#E7F06E"/>
<path d="M61.762 0L64.209 6.56434H72.1278L65.7214 10.6213L68.1684 17.1857L61.762 13.1287L55.3556 17.1857L57.8026 10.6213L51.3962 6.56434H59.315L61.762 0Z" fill="#E7F06E"/>
<path d="M87.1936 0L89.6407 6.56434H97.5594L91.153 10.6213L93.6 17.1857L87.1936 13.1287L80.7872 17.1857L83.2343 10.6213L76.8279 6.56434H84.7466L87.1936 0Z" fill="#E7F06E"/>
<path d="M112.092 0L113 7.125V10.6213V13.1287H112.092L105.685 17.1857L108.132 10.6213L101.726 6.56434H109.645L112.092 0Z" fill="#E7F06E"/>
</svg>
