<svg width="17" height="18" viewBox="0 0 17 18" fill="none" xmlns="http://www.w3.org/2000/svg">
<path d="M13.0996 5.83984C13.0996 4.55624 12.5897 3.3252 11.6821 2.41756C10.7744 1.50991 9.54337 1 8.25977 1C6.97616 1 5.74513 1.50991 4.83748 2.41756C3.92983 3.3252 3.41992 4.55624 3.41992 5.83984C3.41992 11.4863 1 13.0996 1 13.0996H15.5195C15.5195 13.0996 13.0996 11.4863 13.0996 5.83984Z" stroke="black" stroke-width="1.20996" stroke-linecap="round" stroke-linejoin="round"/>
<path d="M9.65523 16.3262C9.51342 16.5706 9.30986 16.7736 9.06496 16.9146C8.82005 17.0557 8.54238 17.13 8.25975 17.13C7.97712 17.13 7.69945 17.0557 7.45454 16.9146C7.20963 16.7736 7.00607 16.5706 6.86426 16.3262" stroke="black" stroke-width="1.20996" stroke-linecap="round" stroke-linejoin="round"/>
</svg>
