<svg width="18" height="18" viewBox="0 0 18 18" fill="none" xmlns="http://www.w3.org/2000/svg">
<path d="M9.23828 17.1328C13.6932 17.1328 17.3047 13.5214 17.3047 9.06641C17.3047 4.61145 13.6932 1 9.23828 1C4.78333 1 1.17188 4.61145 1.17188 9.06641C1.17188 13.5214 4.78333 17.1328 9.23828 17.1328Z" stroke="black" stroke-width="1.20996" stroke-linecap="round" stroke-linejoin="round"/>
<path d="M6.89111 6.64643C7.08076 6.10733 7.45508 5.65274 7.94778 5.36317C8.44047 5.07361 9.01975 4.96776 9.58302 5.06438C10.1463 5.16099 10.6572 5.45383 11.0252 5.89104C11.3932 6.32824 11.5947 6.88159 11.5938 7.45307C11.5938 9.06635 9.17391 9.87299 9.17391 9.87299" stroke="black" stroke-width="1.20996" stroke-linecap="round" stroke-linejoin="round"/>
<path d="M9.23828 13.0996H9.24719" stroke="black" stroke-width="1.20996" stroke-linecap="round" stroke-linejoin="round"/>
</svg>
