<svg width="19" height="19" viewBox="0 0 19 19" fill="none" xmlns="http://www.w3.org/2000/svg">
<path d="M16.0094 10.2916L15.3209 5.22203C15.161 4.04467 14.1557 3.16663 12.9675 3.16663H6.0327C4.84453 3.16663 3.83919 4.04467 3.6793 5.22203L2.99084 10.2916M16.0094 10.2916L16.3321 13.196C16.4884 14.6029 15.3871 15.8333 13.9716 15.8333H5.0286C3.61308 15.8333 2.51181 14.6029 2.66813 13.196L2.99084 10.2916M16.0094 10.2916H13.9378C13.1437 10.2916 12.4022 10.6885 11.9617 11.3492L11.7885 11.609C11.348 12.2698 10.6065 12.6666 9.81237 12.6666H9.18783C8.39374 12.6666 7.65219 12.2698 7.21171 11.609L7.03849 11.3492C6.59801 10.6885 5.85646 10.2916 5.06237 10.2916H2.99084M7.91676 8.70829H11.0834M6.33343 6.33329H12.6668" stroke="#363538" stroke-width="1.5" stroke-linecap="round" stroke-linejoin="round"/>
</svg>
