<svg width="21" height="20" viewBox="0 0 21 20" fill="none" xmlns="http://www.w3.org/2000/svg">
<path d="M17.6945 10.8333L16.9336 5.49691C16.7569 4.25759 15.6457 3.33333 14.3325 3.33333H6.66772C5.35449 3.33333 4.24332 4.25759 4.0666 5.49691L3.30566 10.8333M17.6945 10.8333L18.0512 13.8906C18.224 15.3715 17.0068 16.6667 15.4423 16.6667H5.55793C3.9934 16.6667 2.77621 15.3715 2.94898 13.8906L3.30566 10.8333M17.6945 10.8333H15.405C14.5273 10.8333 13.7077 11.2511 13.2208 11.9466L13.0294 12.2201C12.5425 12.9156 11.7229 13.3333 10.8452 13.3333H10.155C9.27729 13.3333 8.45768 12.9156 7.97083 12.2201L7.77938 11.9466C7.29253 11.2511 6.47293 10.8333 5.59525 10.8333H3.30566M8.75011 9.16666H12.2501M7.00011 6.66666H14.0001" stroke="#363538" stroke-width="1.5" stroke-linecap="round" stroke-linejoin="round"/>
</svg>
