<svg width="27" height="26" viewBox="0 0 27 26" fill="none" xmlns="http://www.w3.org/2000/svg">
<path d="M11.8125 21.9375C11.8125 22.153 11.7236 22.3597 11.5654 22.512C11.4071 22.6644 11.1925 22.75 10.9688 22.75H5.0625C4.61495 22.75 4.18572 22.5788 3.86926 22.274C3.55279 21.9693 3.375 21.556 3.375 21.125V4.875C3.375 4.44402 3.55279 4.0307 3.86926 3.72595C4.18572 3.4212 4.61495 3.25 5.0625 3.25H10.9688C11.1925 3.25 11.4071 3.3356 11.5654 3.48798C11.7236 3.64035 11.8125 3.84701 11.8125 4.0625C11.8125 4.27799 11.7236 4.48465 11.5654 4.63702C11.4071 4.7894 11.1925 4.875 10.9688 4.875H5.0625V21.125H10.9688C11.1925 21.125 11.4071 21.2106 11.5654 21.363C11.7236 21.5153 11.8125 21.722 11.8125 21.9375ZM23.3782 12.4252L19.1595 8.36266C19.0011 8.2102 18.7864 8.12455 18.5625 8.12455C18.3386 8.12455 18.1239 8.2102 17.9655 8.36266C17.8072 8.51511 17.7183 8.72189 17.7183 8.9375C17.7183 9.15311 17.8072 9.35989 17.9655 9.51234L20.7446 12.1875H10.9688C10.745 12.1875 10.5304 12.2731 10.3721 12.4255C10.2139 12.5778 10.125 12.7845 10.125 13C10.125 13.2155 10.2139 13.4222 10.3721 13.5745C10.5304 13.7269 10.745 13.8125 10.9688 13.8125H20.7446L17.9655 16.4877C17.8072 16.6401 17.7183 16.8469 17.7183 17.0625C17.7183 17.2781 17.8072 17.4849 17.9655 17.6373C18.1239 17.7898 18.3386 17.8755 18.5625 17.8755C18.7864 17.8755 19.0011 17.7898 19.1595 17.6373L23.3782 13.5748C23.4567 13.4994 23.5189 13.4098 23.5613 13.3111C23.6038 13.2125 23.6257 13.1068 23.6257 13C23.6257 12.8932 23.6038 12.7875 23.5613 12.6889C23.5189 12.5902 23.4567 12.5006 23.3782 12.4252Z" fill="#1C1C1C"/>
</svg>
