<svg width="27" height="30" viewBox="0 0 27 30" fill="none" xmlns="http://www.w3.org/2000/svg">
<path d="M11.8125 25.3125C11.8125 25.5611 11.7236 25.7996 11.5654 25.9754C11.4071 26.1512 11.1925 26.25 10.9688 26.25H5.0625C4.61495 26.25 4.18572 26.0525 3.86926 25.7008C3.55279 25.3492 3.375 24.8723 3.375 24.375V5.625C3.375 5.12772 3.55279 4.65081 3.86926 4.29917C4.18572 3.94754 4.61495 3.75 5.0625 3.75H10.9688C11.1925 3.75 11.4071 3.84877 11.5654 4.02459C11.7236 4.2004 11.8125 4.43886 11.8125 4.6875C11.8125 4.93614 11.7236 5.1746 11.5654 5.35041C11.4071 5.52623 11.1925 5.625 10.9688 5.625H5.0625V24.375H10.9688C11.1925 24.375 11.4071 24.4738 11.5654 24.6496C11.7236 24.8254 11.8125 25.0639 11.8125 25.3125ZM23.3782 14.3367L19.1595 9.64922C19.0011 9.47331 18.7864 9.37448 18.5625 9.37448C18.3386 9.37448 18.1239 9.47331 17.9655 9.64922C17.8072 9.82513 17.7183 10.0637 17.7183 10.3125C17.7183 10.5613 17.8072 10.7999 17.9655 10.9758L20.7446 14.0625H10.9688C10.745 14.0625 10.5304 14.1613 10.3721 14.3371C10.2139 14.5129 10.125 14.7514 10.125 15C10.125 15.2486 10.2139 15.4871 10.3721 15.6629C10.5304 15.8387 10.745 15.9375 10.9688 15.9375H20.7446L17.9655 19.0242C17.8072 19.2001 17.7183 19.4387 17.7183 19.6875C17.7183 19.9363 17.8072 20.1749 17.9655 20.3508C18.1239 20.5267 18.3386 20.6255 18.5625 20.6255C18.7864 20.6255 19.0011 20.5267 19.1595 20.3508L23.3782 15.6633C23.4567 15.5762 23.5189 15.4728 23.5613 15.359C23.6038 15.2452 23.6257 15.1232 23.6257 15C23.6257 14.8768 23.6038 14.7548 23.5613 14.641C23.5189 14.5272 23.4567 14.4238 23.3782 14.3367Z" fill="#1C1C1C"/>
</svg>
