<svg width="27" height="28" viewBox="0 0 27 28" fill="none" xmlns="http://www.w3.org/2000/svg">
<path d="M21.1761 4.86078C21.9939 5.70575 22.5 6.87492 22.5 8.16668C22.5 9.45843 21.9939 10.6276 21.1761 11.4726M5.82749 4.86078C5.0097 5.70575 4.50361 6.87492 4.50361 8.16668C4.50361 9.45843 5.0097 10.6276 5.82749 11.4726M23.8906 17.5C24.425 18.1192 24.75 18.9369 24.75 19.8334V21C24.75 21.8964 24.425 22.7142 23.8906 23.3334M3.10501 17.5C2.57057 18.1192 2.24561 18.9369 2.24561 19.8334V21C2.24561 21.8964 2.57057 22.7142 3.10501 23.3334M18 8.16667C18 5.58934 15.9853 3.5 13.5 3.5C11.0147 3.5 9 5.58934 9 8.16667C9 10.744 11.0147 12.8333 13.5 12.8333C15.9853 12.8333 18 10.744 18 8.16667ZM5.625 21V19.8333C5.625 17.9003 7.13603 16.3333 9 16.3333H18C19.864 16.3333 21.375 17.9003 21.375 19.8333V21C21.375 22.933 19.864 24.5 18 24.5H9C7.13603 24.5 5.625 22.933 5.625 21Z" stroke="#363538" stroke-width="1.5" stroke-linecap="round" stroke-linejoin="round"/>
</svg>
